<svg width="22" height="22" viewBox="0 0 22 22" fill="none" xmlns="http://www.w3.org/2000/svg">
<path d="M16 2.0003C16.2626 1.73766 16.5744 1.52932 16.9176 1.38718C17.2608 1.24503 17.6286 1.17188 18 1.17188C18.3714 1.17187 18.7392 1.24503 19.0824 1.38718C19.4256 1.52932 19.7374 1.73766 20 2.0003C20.2626 2.26295 20.471 2.57475 20.6131 2.91791C20.7553 3.26107 20.8284 3.62887 20.8284 4.0003C20.8284 4.37174 20.7553 4.73953 20.6131 5.08269C20.471 5.42585 20.2626 5.73766 20 6.0003L6.5 19.5003L1 21.0003L2.5 15.5003L16 2.0003Z" stroke="#A9A9A9" stroke-opacity="0.6" stroke-width="2" stroke-linecap="round" stroke-linejoin="round"/>
</svg>
