<svg width="102" height="22" viewBox="0 0 102 22" fill="none" xmlns="http://www.w3.org/2000/svg">
<path d="M0.363 21V18.274L11.151 3.658H0.363V0.554999H15.501V3.281L4.713 17.897H15.936V21H0.363ZM21.4807 21L15.8837 6.819H19.5957L23.2207 16.795L26.8747 6.819H29.4267L33.0807 16.853L36.7057 6.819H40.2147L34.6467 21H31.4857L28.0347 11.865L24.6417 21H21.4807ZM46.6751 21.29C45.6504 21.29 44.7321 21.0967 43.9201 20.71C43.1274 20.304 42.4991 19.7627 42.0351 19.086C41.5904 18.4093 41.3681 17.6457 41.3681 16.795C41.3681 15.751 41.6388 14.9293 42.1801 14.33C42.7214 13.7113 43.6011 13.2667 44.8191 12.996C46.0371 12.7253 47.6708 12.59 49.7201 12.59H50.7351V11.981C50.7351 11.0143 50.5224 10.3183 50.0971 9.893C49.6718 9.46767 48.9564 9.255 47.9511 9.255C47.1584 9.255 46.3464 9.38067 45.5151 9.632C44.6838 9.864 43.8428 10.2313 42.9921 10.734L41.9481 8.269C42.4508 7.921 43.0404 7.62133 43.7171 7.37C44.4131 7.09933 45.1381 6.89633 45.8921 6.761C46.6654 6.60633 47.3904 6.529 48.0671 6.529C50.1358 6.529 51.6728 7.01233 52.6781 7.979C53.6834 8.92633 54.1861 10.4053 54.1861 12.416V21H50.7931V18.738C50.4644 19.5307 49.9424 20.159 49.2271 20.623C48.5118 21.0677 47.6611 21.29 46.6751 21.29ZM47.4291 18.796C48.3764 18.796 49.1594 18.4673 49.7781 17.81C50.4161 17.1527 50.7351 16.3213 50.7351 15.316V14.678H49.7491C47.9318 14.678 46.6654 14.823 45.9501 15.113C45.2541 15.3837 44.9061 15.8863 44.9061 16.621C44.9061 17.259 45.1284 17.781 45.5731 18.187C46.0178 18.593 46.6364 18.796 47.4291 18.796ZM62.7955 21.29C61.1135 21.29 59.8665 20.8357 59.0545 19.927C58.2618 18.999 57.8655 17.6457 57.8655 15.867V0.554999H61.4905V15.693C61.4905 17.433 62.2251 18.303 63.6945 18.303C63.9071 18.303 64.1198 18.2933 64.3325 18.274C64.5451 18.2547 64.7481 18.216 64.9415 18.158L64.8835 21.029C64.1875 21.203 63.4915 21.29 62.7955 21.29ZM72.0562 21.29C70.3742 21.29 69.1272 20.8357 68.3152 19.927C67.5225 18.999 67.1262 17.6457 67.1262 15.867V0.554999H70.7512V15.693C70.7512 17.433 71.4859 18.303 72.9552 18.303C73.1679 18.303 73.3805 18.2933 73.5932 18.274C73.8059 18.2547 74.0089 18.216 74.2022 18.158L74.1442 21.029C73.4482 21.203 72.7522 21.29 72.0562 21.29ZM83.2344 21.29C81.6297 21.29 80.2474 20.9903 79.0874 20.391C77.9274 19.7917 77.0284 18.941 76.3904 17.839C75.7717 16.737 75.4624 15.432 75.4624 13.924C75.4624 12.4547 75.762 11.169 76.3614 10.067C76.98 8.965 77.821 8.10467 78.8844 7.486C79.967 6.848 81.1947 6.529 82.5674 6.529C84.578 6.529 86.1634 7.167 87.3234 8.443C88.5027 9.719 89.0924 11.459 89.0924 13.663V14.736H78.9424C79.213 17.2687 80.663 18.535 83.2924 18.535C84.085 18.535 84.8777 18.419 85.6704 18.187C86.463 17.9357 87.188 17.549 87.8454 17.027L88.8604 19.463C88.1837 20.0237 87.333 20.4683 86.3084 20.797C85.2837 21.1257 84.259 21.29 83.2344 21.29ZM82.7124 8.994C81.649 8.994 80.7887 9.32267 80.1314 9.98C79.474 10.6373 79.0777 11.5267 78.9424 12.648H86.0764C85.999 11.4687 85.6704 10.5697 85.0904 9.951C84.5297 9.313 83.737 8.994 82.7124 8.994ZM98.4025 21.29C94.6518 21.29 92.7765 19.434 92.7765 15.722V9.545H90.0505V6.819H92.7765V2.585H96.4015V6.819H100.693V9.545H96.4015V15.519C96.4015 16.447 96.6045 17.143 97.0105 17.607C97.4165 18.071 98.0738 18.303 98.9825 18.303C99.2532 18.303 99.5335 18.274 99.8235 18.216C100.113 18.1387 100.413 18.0613 100.722 17.984L101.273 20.652C100.925 20.8453 100.481 21 99.9395 21.116C99.4175 21.232 98.9052 21.29 98.4025 21.29Z" fill="#6379F4"/>
</svg>
